<svg version="1.2" xmlns="http://www.w3.org/2000/svg" viewBox="0 0 744 390" width="744" height="390">
	<title>Logotype accent RGB-ai</title>
	<style>
		.s0 { fill: #163e6c } 
		.s1 { fill: #d20a11 } 
		.s2 { fill: #ebe6d6 } 
	</style>
	<g id="Слой 1">
		<path id="&lt;Path&gt;" class="s0" d="m723.3 19.8l-65.3 167.4h-132.4l24.5-63h-107.3l-54.7 140.3h240.1l-40.7 104.4h-374v-0.5l-41.4-103.9h83.5l7-17.9h-97.7l-40.3-104.5h178.8l6.9-17.9h-254.4l-41.3-104.4z" />
		<path id="&lt;Path&gt;" class="s1" d="m1585.2 19.8l-65.3 167.4h-132.5l24.6-63h-107.4l-54.6 140.3h240.1l-40.7 104.4h-374.1v-0.5l-41.3-103.9h83.5l7-17.9h-97.7l-40.3-104.5h178.8l6.9-17.9h-254.5l-41.2-104.4z" />
		<path id="&lt;Path&gt;" class="s2" d="m2447.1 19.8l-65.3 167.4h-132.5l24.6-63h-107.4l-54.6 140.3h240.1l-40.7 104.4h-374.1v-0.5l-41.3-103.9h83.5l7-17.9h-97.7l-40.3-104.5h178.7l7-17.9h-254.5l-41.2-104.4z" />
	</g>
</svg>